<svg width="40" height="40" viewBox="0 0 40 40" fill="none" xmlns="http://www.w3.org/2000/svg">
<rect width="40" height="40" rx="20" fill="#EDFFF5"/>
<g clip-path="url(#clip0_2111_3664)">
<path fill-rule="evenodd" clip-rule="evenodd" d="M24.3369 14.1112C21.4749 11.9979 17.4212 12.2373 14.8292 14.8293C12.9541 16.7043 12.3096 19.3445 12.898 21.7471C12.9719 22.0489 12.7872 22.3534 12.4855 22.4273C12.1837 22.5012 11.8792 22.3165 11.8053 22.0148C11.1272 19.2461 11.8692 16.1983 14.0337 14.0338C17.025 11.0425 21.7035 10.7667 25.0059 13.2065V12.6875C25.0059 12.3768 25.2577 12.125 25.5684 12.125C25.8791 12.125 26.1309 12.3768 26.1309 12.6875V14.4315C26.1309 14.6984 25.9434 14.9285 25.682 14.9824L23.9104 15.3478C23.6061 15.4105 23.3086 15.2147 23.2459 14.9105C23.1831 14.6062 23.379 14.3087 23.6832 14.246L24.3369 14.1112ZM27.5144 17.5727C27.8161 17.4988 28.1207 17.6835 28.1945 17.9853C28.8726 20.7539 28.1307 23.8017 25.9661 25.9662C22.9749 28.9575 18.2963 29.2333 14.994 26.7935V27.6213C14.994 27.932 14.7421 28.1838 14.4315 28.1838C14.1208 28.1838 13.869 27.932 13.869 27.6213V25.5685C13.869 25.2578 14.1208 25.006 14.4315 25.006H16.4843C16.795 25.006 17.0468 25.2578 17.0468 25.5685C17.0468 25.8791 16.795 26.131 16.4843 26.131H16.0117C18.8467 27.9792 22.6823 27.6591 25.1707 25.1707C27.0457 23.2957 27.6903 20.6555 27.1019 18.2529C27.0279 17.9511 27.2126 17.6466 27.5144 17.5727Z" fill="#28C76F"/>
</g>
<defs>
<clipPath id="clip0_2111_3664">
<rect width="18" height="18" fill="white" transform="translate(11 11)"/>
</clipPath>
</defs>
</svg>
